<?xml version="1.0" encoding="UTF-8"?><svg id="Layer_1" xmlns="http://www.w3.org/2000/svg" viewBox="0 0 1411.92 406.23"><defs><style>.cls-1{fill:#439c9a;}.cls-2{fill:#263967;}.cls-3{fill:#7a9491;}</style></defs><path class="cls-1" d="M1241.24,60.18c-208.6,44.63-387.96,120.03-529.4,282.48C786.9,164.79,1001.94,43.84,1179.48.78c21.87,21.06,41.62,35.33,61.76,59.4Z"/><path class="cls-1" d="M688.19,333.33C544.56,175.94,370.12,105.73,167.58,60.5L226.29,0c110.41,28.87,212.48,75.3,303.53,142.68,65.31,52.53,124.18,110.21,158.37,190.65Z"/><path class="cls-3" d="M911.75,259.97c-62.28,20.75-112.71,49.49-172.95,75.05,136.64-133.33,347.36-196.66,532.27-209.16l55.21,69.43c-141.9,1.85-278.54,19.39-414.53,64.68Z"/><path class="cls-3" d="M675.62,338.88c-72.66-34.49-138.55-67.92-214.51-90.28-124.07-36.53-249.32-51.82-379.12-53.64,17.73-26.96,35.5-45.54,55.08-68.96,196.78,15.69,390.75,77.4,538.55,212.89Z"/><path class="cls-2" d="M1411.92,303.64c-201.99-31.9-412.3-12.75-611.84,48.65-6.76,19.96-18.76,32.87-37.11,41.55-49.91,23.62-134.14,15.46-157.23-41.75C409.02,290.52,204.78,273.39,0,301.83c6.57-17.14,15.89-29.95,26.87-46.26,165.35-20.48,332.72-11.2,494.45,34.35,47.35,13.33,96.78,27.9,135.54,53.4,39.97,26.3,67.26,17.22,104.11-4.22,67.44-39.22,145.65-57.32,223.13-72.32,132.91-25.74,266.32-25.58,399.39-10.82l28.43,47.67Z"/></svg>